Coordinates
version=1
nRows=24
nColumns=22
inDegrees=yes

Units are S.I. units (second, meters, Newtons, ...)
If the header above contains a line with 'inDegrees', this indicates whether rotational values are in degrees (yes) or radians (no).

endheader
time	pelvis_tilt	pelvis_list	pelvis_rotation	pelvis_tx	pelvis_ty	pelvis_tz	hip_flexion_r	hip_adduction_r	hip_rotation_r	knee_angle_r	ankle_angle_r	subtalar_angle_r	hip_flexion_l	hip_adduction_l	hip_rotation_l	knee_angle_l	ankle_angle_l	subtalar_angle_l	lumbar_extension	lumbar_bending	lumbar_rotation
      2.63000000	     -5.19138217	     -1.11080261	    -37.18409849	     -0.45339664	      0.92628081	      0.26347265	     -2.77896540	     11.25777285	     14.49283976	    -24.21452829	     16.54507392	     -5.65939577	     31.43278902	     -3.39912112	      9.82807750	    -21.67564342	      5.23894285	      6.20135700	     -5.19670649	      0.60218742	     10.18342917
      2.64000000	     -5.19349870	     -0.90679896	    -37.47807429	     -0.44526706	      0.92651389	      0.26776698	     -2.63136470	     11.08072029	     14.67319597	    -25.28228323	     15.95249537	     -5.38978444	     31.37103451	     -3.10488731	      9.86560854	    -22.38632229	      4.49478816	      5.77802248	     -4.96793994	      0.40111472	      9.90674563
      2.65000000	     -5.18580373	     -0.73469051	    -37.74845467	     -0.43706081	      0.92696166	      0.27210464	     -2.42363908	     10.93041336	     14.73220097	    -26.46653791	     15.18826236	     -4.99439532	     31.27837213	     -2.84565129	      9.85789341	    -23.09274967	      3.83368026	      5.38788553	     -4.76062885	      0.21854741	      9.63461700
      2.66000000	     -5.16144416	     -0.56316698	    -38.00763852	     -0.42878813	      0.92762021	      0.27653610	     -2.14042112	     10.78239804	     14.71632480	    -27.77041714	     14.24199595	     -4.47027187	     31.12365744	     -2.60746261	      9.78836061	    -23.72748847	      3.27577509	      5.17029484	     -4.55347329	      0.01861305	      9.32786394
      2.67000000	     -5.13005792	     -0.40407371	    -38.26560153	     -0.42050180	      0.92844191	      0.28102337	     -1.74919518	     10.64727941	     14.58777652	    -29.23137990	     13.11761658	     -3.82304324	     30.91303183	     -2.40764988	      9.65545572	    -24.29827209	      2.82248811	      5.11221164	     -4.35493607	     -0.17761636	      9.01523403
      2.68000000	     -5.10518115	     -0.26788967	    -38.53089713	     -0.41225133	      0.92938905	      0.28556683	     -1.23044679	     10.53800742	     14.33947589	    -30.85861276	     11.79235878	     -2.92883351	     30.65130202	     -2.26542357	      9.45433769	    -24.80377750	      2.49758586	      5.13442912	     -4.16512734	     -0.35140152	      8.68610709
      2.69000000	     -5.06640283	     -0.17758454	    -38.80815097	     -0.40404444	      0.93046725	      0.29014904	     -0.61334815	     10.44689493	     13.96051448	    -32.64185719	     10.26018916	     -1.69177470	     30.31079711	     -2.18451721	      9.16519247	    -25.25538487	      2.38655988	      5.17895900	     -4.02437470	     -0.49162898	      8.33436811
      2.70000000	     -5.03749536	     -0.08591551	    -39.11091040	     -0.39599929	      0.93156265	      0.29470721	      0.19133204	     10.34870380	     13.45626818	    -34.62833841	      8.56041481	     -0.27310874	     29.94755890	     -2.13373498	      8.82818736	    -25.65152490	      2.36109809	      5.21603557	     -3.89069881	     -0.62652359	      7.99677244
      2.71000000	     -4.97764903	     -0.02683260	    -39.44528352	     -0.38809670	      0.93275318	      0.29923534	      1.10756739	     10.22856682	     12.84496023	    -36.77533893	      6.71031925	      1.42381229	     29.47748907	     -2.11046012	      8.44519325	    -25.94813971	      2.46864373	      5.19609759	     -3.82908968	     -0.74862062	      7.65697869
      2.72000000	     -4.93292662	      0.05760321	    -39.79885456	     -0.38040684	      0.93383181	      0.30366005	      2.23401410	     10.06456654	     12.11720169	    -39.10918820	      4.82130604	      3.18002969	     29.02557970	     -2.08332386	      8.01650578	    -26.21506914	      2.69231641	      5.08645966	     -3.76309676	     -0.87442242	      7.29498912
      2.73000000	     -4.86014073	      0.15972888	    -40.17031806	     -0.37291825	      0.93484690	      0.30797154	      3.50370735	      9.82430941	     11.30655427	    -41.58812650	      2.99471321	      4.92921109	     28.54200049	     -2.02870248	      7.53475267	    -26.43439161	      2.98795713	      4.89358892	     -3.73722441	     -1.02619165	      6.89905723
      2.74000000	     -4.75123538	      0.28825838	    -40.56100623	     -0.36563237	      0.93577978	      0.31215818	      4.89793476	      9.48528918	     10.43045775	    -44.18231931	      1.35402040	      6.48914586	     28.01633233	     -1.92993141	      7.02312994	    -26.58723133	      3.33533351	      4.63483297	     -3.75162317	     -1.21659809	      6.47953070
      2.75000000	     -4.58343599	      0.40912773	    -40.95931788	     -0.35848569	      0.93670251	      0.31622762	      6.33314510	      9.04968908	      9.51260226	    -46.82182544	     -0.02614505	      7.89744055	     27.39306320	     -1.79112336	      6.50385818	    -26.65069622	      3.74475667	      4.32550120	     -3.84417724	     -1.42921043	      6.03781139
      2.76000000	     -4.37000727	      0.57449572	    -41.35609206	     -0.35149139	      0.93749458	      0.32013833	      7.84879443	      8.48302347	      8.56646223	    -49.49781017	     -1.02786299	      8.79533793	     26.76364130	     -1.57784085	      5.94668152	    -26.69193728	      4.19656444	      4.00129952	     -3.96386969	     -1.69846608	      5.53774810
      2.77000000	     -4.04578089	      0.72931915	    -41.75190641	     -0.34456951	      0.93836246	      0.32394444	      9.30577429	      7.77604059	      7.61129091	    -52.11948033	     -1.68125931	      9.11980741	     25.99268052	     -1.28403422	      5.39431858	    -26.64233685	      4.65375528	      3.78148408	     -4.19887423	     -2.02848025	      5.01167996
      2.78000000	     -3.75025276	      0.90499649	    -42.11509219	     -0.33774182	      0.93906969	      0.32761126	     10.82273326	      7.01374720	      6.65820746	    -54.64640513	     -1.88173825	      9.29491134	     25.28954706	     -0.97939733	      4.80711838	    -26.60597470	      5.13012200	      3.46967865	     -4.39837905	     -2.33587623	      4.38843496
      2.79000000	     -3.41227450	      1.06105062	    -42.46750277	     -0.33097409	      0.93981936	      0.33120724	     12.28782625	      6.18492303	      5.72560684	    -57.02305103	     -1.75667055	      9.09025923	     24.51692612	     -0.63800273	      4.27844027	    -26.51751743	      5.60631071	      3.19712859	     -4.64952429	     -2.64815341	      3.76271691
      2.80000000	     -3.09509617	      1.19726471	    -42.80317276	     -0.32426220	      0.94057835	      0.33478822	     13.71879199	      5.35832179	      4.82055167	    -59.18008049	     -1.40583700	      8.15739933	     23.73193939	     -0.30968555	      3.79397662	    -26.38493045	      6.08784186	      2.86887129	     -4.88727908	     -2.91909224	      3.12074324
      2.81000000	     -2.75727469	      1.28158604	    -43.12214277	     -0.31761094	      0.94146708	      0.33839575	     15.03764152	      4.55335626	      3.97709690	    -61.07971887	     -0.82128633	      7.02729547	     22.88256262	      0.00683793	      3.35134497	    -26.21795720	      6.55791437	      2.69251459	     -5.17341490	     -3.16065123	      2.45482510
      2.82000000	     -2.46019420	      1.31766839	    -43.43368394	     -0.31106744	      0.94242081	      0.34206689	     16.28992413	      3.83381103	      3.19653047	    -62.69892381	     -0.10069641	      5.70011714	     22.02900709	      0.26827157	      2.96979900	    -26.03571503	      7.01875094	      2.54029095	     -5.44922773	     -3.33554821	      1.80220614
      2.83000000	     -2.21259177	      1.30158799	    -43.73957982	     -0.30463585	      0.94345135	      0.34584146	     17.46310225	      3.23659676	      2.49907723	    -64.01401117	      0.71233207	      4.29878701	     21.17101140	      0.45901422	      2.63225987	    -25.83312420	      7.46303989	      2.41932709	     -5.70652263	     -3.43469861	      1.15023450
      2.84000000	     -2.01509087	      1.23605247	    -44.05248554	     -0.29834949	      0.94454548	      0.34973072	     18.56118680	      2.77127455	      1.88523286	    -65.02528445	      1.55051726	      2.93734420	     20.31713279	      0.57569640	      2.33013464	    -25.62482771	      7.88866766	      2.31998010	     -5.94524656	     -3.46561997	      0.53897879
      2.85000000	     -1.86535293	      1.12700562	    -44.37836980	     -0.29221694	      0.94568770	      0.35374255	     19.58102982	      2.44382734	      1.36093302	    -65.72980365	      2.37912560	      1.70949434	     19.46679719	      0.62035345	      2.04797068	    -25.40869648	      8.29845865	      2.23646204	     -6.16328701	     -3.43636798	     -0.02950970
      2.86000000	     -1.74452721	      0.98887106	    -44.71764750	     -0.28622535	      0.94686214	      0.35786592	     20.51876819	      2.22729033	      0.91946808	    -66.13758033	      3.16821832	      0.70029993	     18.61374666	      0.61553177	      1.75992415	    -25.18049566	      8.67855998	      2.16977579	     -6.36654789	     -3.37363536	     -0.55469796
